<svg width="33" height="32" viewBox="0 0 33 32" fill="none" xmlns="http://www.w3.org/2000/svg">
<path d="M16.6901 14C15.5852 14 14.6901 14.8954 14.6901 16C14.6901 17.1049 15.5855 18 16.6901 18C17.795 18 18.6901 17.1046 18.6901 16C18.6901 14.8952 17.7947 14 16.6901 14ZM16.6901 12.6667C18.5304 12.6667 20.0235 14.1581 20.0235 16C20.0235 17.8404 18.5321 19.3334 16.6901 19.3334C14.8498 19.3334 13.3568 17.842 13.3568 16C13.3568 14.1597 14.8482 12.6667 16.6901 12.6667ZM21.0235 12.4995C21.0235 12.9595 20.6496 13.3328 20.1901 13.3328C19.7301 13.3328 19.3568 12.959 19.3568 12.4995C19.3568 12.04 19.7306 11.6667 20.1901 11.6667C20.649 11.6661 21.0235 12.04 21.0235 12.4995ZM16.6901 10.6667C15.0405 10.6667 14.7716 10.6711 14.0043 10.7052C13.4816 10.7298 13.1311 10.8001 12.8056 10.9265C12.5162 11.0387 12.3075 11.1727 12.0851 11.3951C11.8619 11.6183 11.7281 11.8265 11.6164 12.1159C11.4897 12.4423 11.4194 12.7921 11.3953 13.3141C11.3608 14.0502 11.3568 14.3074 11.3568 16C11.3568 17.6497 11.3611 17.9186 11.3953 18.6858C11.4199 19.2083 11.4903 19.5592 11.6163 19.884C11.7289 20.1738 11.8631 20.383 12.0844 20.6043C12.3085 20.8281 12.5173 20.9623 12.804 21.073C13.1336 21.2004 13.4838 21.2708 14.0042 21.2948C14.7402 21.3293 14.9975 21.3334 16.6901 21.3334C18.3398 21.3334 18.6087 21.329 19.3759 21.2948C19.8973 21.2704 20.2485 21.1998 20.5741 21.0738C20.8631 20.9616 21.0729 20.8268 21.2944 20.6057C21.5185 20.3812 21.6525 20.173 21.7633 19.8856C21.8903 19.5572 21.9609 19.2066 21.9849 18.686C22.0194 17.9499 22.0235 17.6926 22.0235 16C22.0235 14.3504 22.0191 14.0815 21.9849 13.3143C21.9604 12.7927 21.8898 12.441 21.7637 12.1155C21.6517 11.827 21.5173 11.6176 21.2951 11.3951C21.0715 11.1715 20.8639 11.038 20.5742 10.9263C20.2481 10.7997 19.8977 10.7293 19.376 10.7052C18.64 10.6707 18.3827 10.6667 16.6901 10.6667ZM16.6901 9.33337C18.5012 9.33337 18.7273 9.34004 19.4385 9.37337C20.1479 9.40615 20.6318 9.51837 21.0568 9.68337C21.4962 9.85282 21.8673 10.0817 22.2379 10.4523C22.6079 10.8228 22.8368 11.195 23.0068 11.6334C23.1712 12.0578 23.2835 12.5423 23.3168 13.2517C23.3485 13.9628 23.3568 14.1889 23.3568 16C23.3568 17.8112 23.3501 18.0372 23.3168 18.7484C23.284 19.4578 23.1712 19.9417 23.0068 20.3667C22.8373 20.8062 22.6079 21.1772 22.2379 21.5478C21.8673 21.9178 21.4945 22.1467 21.0568 22.3167C20.6318 22.4812 20.1479 22.5934 19.4385 22.6267C18.7273 22.6584 18.5012 22.6667 16.6901 22.6667C14.879 22.6667 14.6529 22.66 13.9418 22.6267C13.2323 22.5939 12.749 22.4812 12.3234 22.3167C11.8845 22.1472 11.5129 21.9178 11.1423 21.5478C10.7718 21.1772 10.5434 20.8045 10.3734 20.3667C10.2084 19.9417 10.0968 19.4578 10.0634 18.7484C10.0318 18.0372 10.0234 17.8112 10.0234 16C10.0234 14.1889 10.0301 13.9628 10.0634 13.2517C10.0962 12.5417 10.2084 12.0584 10.3734 11.6334C10.5429 11.1945 10.7718 10.8228 11.1423 10.4523C11.5129 10.0817 11.8851 9.85337 12.3234 9.68337C12.7484 9.51837 13.2318 9.40671 13.9418 9.37337C14.6529 9.34171 14.879 9.33337 16.6901 9.33337Z" fill="white"/>
</svg>
