<svg width="14" height="14" viewBox="0 0 14 14" fill="none" xmlns="http://www.w3.org/2000/svg">
<path d="M5.88008 6.33496C5.90925 6.14246 5.97341 5.97329 6.05508 5.82746C6.13675 5.68163 6.25341 5.55913 6.39925 5.46579C6.53925 5.37829 6.71425 5.33746 6.93008 5.33163C7.06425 5.33746 7.18675 5.36079 7.29758 5.40746C7.41425 5.45996 7.51925 5.52996 7.60091 5.61746C7.68258 5.70496 7.74675 5.80996 7.79925 5.92663C7.85175 6.04329 7.87508 6.17163 7.88091 6.29996H8.92508C8.91341 6.02579 8.86091 5.77496 8.76175 5.54746C8.66258 5.31996 8.52841 5.12163 8.35341 4.95829C8.17841 4.79496 7.96841 4.66663 7.72341 4.57329C7.47841 4.47996 7.21008 4.43913 6.91258 4.43913C6.53341 4.43913 6.20091 4.50329 5.92091 4.63746C5.64091 4.77163 5.40758 4.94663 5.22091 5.17413C5.03425 5.40163 4.89425 5.66413 4.80675 5.96746C4.71925 6.27079 4.66675 6.58579 4.66675 6.92413V7.08163C4.66675 7.41996 4.71341 7.73496 4.80091 8.03829C4.88841 8.34163 5.02841 8.60413 5.21508 8.82579C5.40175 9.04746 5.63508 9.22829 5.91508 9.35663C6.19508 9.48496 6.52758 9.55496 6.90675 9.55496C7.18091 9.55496 7.43758 9.50829 7.67675 9.42079C7.91591 9.33329 8.12591 9.21079 8.30675 9.05329C8.48758 8.89579 8.63341 8.71496 8.73841 8.50496C8.84341 8.29496 8.90758 8.07329 8.91341 7.83413H7.86925C7.86341 7.95663 7.83425 8.06746 7.78175 8.17246C7.72925 8.27746 7.65925 8.36496 7.57175 8.44079C7.48425 8.51663 7.38508 8.57496 7.26841 8.61579C7.15758 8.65663 7.04091 8.66829 6.91841 8.67413C6.70841 8.66829 6.53341 8.62746 6.39925 8.53996C6.25341 8.44663 6.13675 8.32413 6.05508 8.17829C5.97341 8.03246 5.90925 7.85746 5.88008 7.66496C5.85091 7.47246 5.83341 7.27413 5.83341 7.08163V6.92413C5.83341 6.71996 5.85091 6.52746 5.88008 6.33496ZM7.00008 1.16663C3.78008 1.16663 1.16675 3.77996 1.16675 6.99996C1.16675 10.22 3.78008 12.8333 7.00008 12.8333C10.2201 12.8333 12.8334 10.22 12.8334 6.99996C12.8334 3.77996 10.2201 1.16663 7.00008 1.16663ZM7.00008 11.6666C4.42758 11.6666 2.33341 9.57246 2.33341 6.99996C2.33341 4.42746 4.42758 2.33329 7.00008 2.33329C9.57258 2.33329 11.6667 4.42746 11.6667 6.99996C11.6667 9.57246 9.57258 11.6666 7.00008 11.6666Z" fill="white"/>
</svg>
