<svg width="40" height="40" viewBox="0 0 40 40" fill="none" xmlns="http://www.w3.org/2000/svg">
<path d="M0 8C0 3.58172 3.58172 0 8 0H32C36.4183 0 40 3.58172 40 8V32C40 36.4183 36.4183 40 32 40H8C3.58172 40 0 36.4183 0 32V8Z" fill="#E6F0FF"/>
<path d="M12.4539 21.1762V23.9862C12.4539 24.7162 12.8539 25.3962 13.4939 25.7462L18.4939 28.4762C19.0939 28.8062 19.8139 28.8062 20.4139 28.4762L25.4139 25.7462C26.0539 25.3962 26.4539 24.7162 26.4539 23.9862V21.1762L20.4139 24.4762C19.8139 24.8062 19.0939 24.8062 18.4939 24.4762L12.4539 21.1762ZM18.4939 11.5162L10.0639 16.1162C9.37389 16.4962 9.37389 17.4962 10.0639 17.8762L18.4939 22.4762C19.0939 22.8062 19.8139 22.8062 20.4139 22.4762L28.4539 18.0862V23.9962C28.4539 24.5462 28.9039 24.9962 29.4539 24.9962C30.0039 24.9962 30.4539 24.5462 30.4539 23.9962V17.5862C30.4539 17.2162 30.2539 16.8862 29.9339 16.7062L20.4139 11.5162C19.8139 11.1962 19.0939 11.1962 18.4939 11.5162Z" fill="#0568FD"/>
</svg>
