<svg width="40" height="40" viewBox="0 0 40 40" fill="none" xmlns="http://www.w3.org/2000/svg">
<path d="M0 20C0 8.95431 8.95431 0 20 0C31.0457 0 40 8.95431 40 20C40 31.0457 31.0457 40 20 40C8.95431 40 0 31.0457 0 20Z" fill="#0568FD"/>
<path d="M15.7039 27V25.46L20.4039 20.42C21.0572 19.7133 21.5239 19.0733 21.8039 18.5C22.0972 17.9267 22.2439 17.3467 22.2439 16.76C22.2439 15.24 21.3506 14.48 19.5639 14.48C18.2039 14.48 16.9839 14.9933 15.9039 16.02L15.1639 14.44C15.6972 13.92 16.3772 13.5067 17.2039 13.2C18.0306 12.88 18.8906 12.72 19.7839 12.72C21.2372 12.72 22.3506 13.0533 23.1239 13.72C23.9106 14.3867 24.3039 15.34 24.3039 16.58C24.3039 17.42 24.0972 18.24 23.6839 19.04C23.2839 19.84 22.6506 20.6933 21.7839 21.6L18.3039 25.26H24.8639V27H15.7039Z" fill="white"/>
</svg>
