<svg width="40" height="40" viewBox="0 0 40 40" fill="none" xmlns="http://www.w3.org/2000/svg">
<path d="M0 8C0 3.58172 3.58172 0 8 0H32C36.4183 0 40 3.58172 40 8V32C40 36.4183 36.4183 40 32 40H8C3.58172 40 0 36.4183 0 32V8Z" fill="#E6F0FF"/>
<path d="M20 15V13C20 11.9 19.1 11 18 11H12C10.9 11 10 11.9 10 13V27C10 28.1 10.9 29 12 29H28C29.1 29 30 28.1 30 27V17C30 15.9 29.1 15 28 15H20ZM18 27H12V25H18V27ZM18 23H12V21H18V23ZM18 19H12V17H18V19ZM18 15H12V13H18V15ZM28 27H20V17H28V27ZM26 19H22V21H26V19ZM26 23H22V25H26V23Z" fill="#0568FD"/>
</svg>
