<svg width="33" height="32" viewBox="0 0 33 32" fill="none" xmlns="http://www.w3.org/2000/svg">
<path d="M17.3568 21.2921C19.9877 20.964 22.0235 18.7198 22.0235 16C22.0235 13.0545 19.6357 10.6667 16.6901 10.6667C13.7446 10.6667 11.3568 13.0545 11.3568 16C11.3568 18.7198 13.3926 20.964 16.0235 21.2921V17.3334H14.6901V16H16.0235V14.8972C16.0235 14.0057 16.1163 13.6825 16.2906 13.3565C16.4649 13.0306 16.7207 12.7748 17.0466 12.6005C17.3017 12.4641 17.6182 12.3817 18.1713 12.3464C18.3907 12.3324 18.6749 12.3503 19.0235 12.4V13.6667H18.6901C18.0786 13.6667 17.8263 13.6956 17.6754 13.7763C17.5819 13.8263 17.5164 13.8918 17.4663 13.9853C17.3857 14.1362 17.3568 14.2857 17.3568 14.8972V16H19.0235L18.6901 17.3334H17.3568V21.2921ZM16.6901 22.6667C13.0082 22.6667 10.0234 19.6819 10.0234 16C10.0234 12.3181 13.0082 9.33337 16.6901 9.33337C20.372 9.33337 23.3568 12.3181 23.3568 16C23.3568 19.6819 20.372 22.6667 16.6901 22.6667Z" fill="white"/>
</svg>
