<svg width="40" height="40" viewBox="0 0 40 40" fill="none" xmlns="http://www.w3.org/2000/svg">
<path d="M0 20C0 8.95431 8.95431 0 20 0C31.0457 0 40 8.95431 40 20C40 31.0457 31.0457 40 20 40C8.95431 40 0 31.0457 0 20Z" fill="#0568FD"/>
<path d="M19.7839 27.18C18.8372 27.18 17.9372 27.04 17.0839 26.76C16.2306 26.4667 15.5172 26.06 14.9439 25.54L15.6639 23.94C16.2906 24.4467 16.9372 24.82 17.6039 25.06C18.2706 25.3 18.9772 25.42 19.7239 25.42C20.6839 25.42 21.4106 25.2133 21.9039 24.8C22.4106 24.3867 22.6639 23.7933 22.6639 23.02C22.6639 22.2467 22.4106 21.6733 21.9039 21.3C21.4106 20.9267 20.6906 20.74 19.7439 20.74H17.5639V19H19.5439C20.3839 19 21.0439 18.7867 21.5239 18.36C22.0172 17.9333 22.2639 17.3467 22.2639 16.6C22.2639 15.92 22.0372 15.4 21.5839 15.04C21.1306 14.6667 20.4839 14.48 19.6439 14.48C18.2172 14.48 16.9706 14.9933 15.9039 16.02L15.1839 14.44C15.7306 13.8933 16.4106 13.4733 17.2239 13.18C18.0506 12.8733 18.9106 12.72 19.8039 12.72C21.2172 12.72 22.3172 13.0467 23.1039 13.7C23.8906 14.34 24.2839 15.2333 24.2839 16.38C24.2839 17.1533 24.0839 17.8333 23.6839 18.42C23.2972 19.0067 22.7572 19.4333 22.0639 19.7C22.9039 19.9133 23.5506 20.3267 24.0039 20.94C24.4572 21.54 24.6839 22.28 24.6839 23.16C24.6839 24.4 24.2439 25.38 23.3639 26.1C22.4972 26.82 21.3039 27.18 19.7839 27.18Z" fill="white"/>
</svg>
