<svg width="40" height="40" viewBox="0 0 40 40" fill="none" xmlns="http://www.w3.org/2000/svg">
<path d="M0 8C0 3.58172 3.58172 0 8 0H32C36.4183 0 40 3.58172 40 8V32C40 36.4183 36.4183 40 32 40H8C3.58172 40 0 36.4183 0 32V8Z" fill="#E6F0FF"/>
<path d="M30 17C29.45 17 29 17.45 29 18V19H27V12C27 11.45 26.55 11 26 11C25.45 11 25 11.45 25 12V13H23V12C23 11.45 22.55 11 22 11C21.45 11 21 11.45 21 12V13H19V12C19 11.45 18.55 11 18 11C17.45 11 17 11.45 17 12V13H15V12C15 11.45 14.55 11 14 11C13.45 11 13 11.45 13 12V19H11V18C11 17.45 10.55 17 10 17C9.45 17 9 17.45 9 18V27C9 28.1 9.9 29 11 29H18V26C18 24.9 18.9 24 20 24C21.1 24 22 24.9 22 26V29H29C30.1 29 31 28.1 31 27V18C31 17.45 30.55 17 30 17ZM19 20H17V17H19V20ZM23 20H21V17H23V20Z" fill="#0568FD"/>
</svg>
