<svg width="42" height="40" viewBox="0 0 42 40" fill="none" xmlns="http://www.w3.org/2000/svg">
<path d="M17.6727 29.695C13.4037 25.1807 9.1901 20.7235 4.97534 16.265C5.21944 15.9026 5.54596 16.0515 5.81166 16.0511C11.8805 16.0412 17.9494 16.0579 24.0181 16.0281C24.9318 16.0236 25.1902 16.1751 24.8295 17.1316C23.036 21.8879 21.3029 26.6668 19.4886 31.6008C18.8367 30.9162 18.2825 30.3342 17.6727 29.695Z" fill="white"/>
<path d="M26.5317 9.37312C26.5318 6.46739 26.5317 3.67345 26.5323 0.879521C26.5324 0.432852 26.4535 -0.0262385 27.174 0.00116946C31.6293 0.170656 36.0856 0.317496 40.8679 0.483166C36.0421 5.10321 31.4152 9.53277 26.5317 14.208C26.5317 12.4578 26.5317 10.9713 26.5317 9.37312Z" fill="white"/>
<path d="M18.7115 7.9815C20.9225 5.61887 23.0808 3.31551 25.2263 1.02576C25.5804 1.16045 25.4563 1.42258 25.4567 1.61619C25.4646 5.74484 25.4631 9.87351 25.4627 14.0022C25.4627 14.4766 25.5801 14.9626 24.7867 14.9574C20.6641 14.9304 16.5412 14.9448 12.1318 14.9448C14.4164 12.5282 16.5376 10.2845 18.7115 7.9815Z" fill="white"/>
<path d="M25.5019 39.7024C24.8968 40.4675 24.582 39.5172 24.0093 39.5052C22.6147 38.4472 20.9169 38.1339 19.5545 37.1563C18.9738 36.7397 18.8044 36.471 19.0688 35.7624C21.1323 30.2331 23.145 24.685 25.2105 19.0721C25.2799 18.9686 25.3121 18.9357 25.3907 18.9541C25.4469 25.3547 25.4563 31.7039 25.4674 38.0532C25.4683 38.5729 25.4809 39.0925 25.5019 39.7024Z" fill="white"/>
<path d="M4.12689 4.35484C5.97647 3.95859 7.35685 4.40149 8.53726 5.92451C9.96621 7.76821 11.6422 9.42365 13.2524 11.1216C13.7075 11.6016 13.6351 11.8939 13.2068 12.3019C12.4539 13.0193 11.726 13.7643 11.0144 14.5229C10.7067 14.851 10.3712 14.9586 9.93239 14.9537C8.22286 14.9344 6.51283 14.9322 4.80335 14.9534C4.27544 14.96 3.98663 14.8727 3.99454 14.2364C4.03522 10.9671 4.03714 7.69737 4.12689 4.35484Z" fill="white"/>
<path d="M36.3807 6.33354C37.4832 5.20481 38.5729 4.20071 39.5948 3.13183C40.3917 2.29822 40.9955 3.18364 41.8005 3.4458C40.052 4.4851 38.3036 5.52441 36.4758 6.59844C36.3771 6.56553 36.3579 6.4979 36.3807 6.33354Z" fill="white"/>
<path d="M0 7.62748C0.94748 6.75242 1.83984 5.93581 2.81883 5.03992C3.1176 5.95337 2.94094 6.75144 2.96666 7.53388C2.97003 7.63646 2.9313 7.76083 2.86879 7.84162C2.60434 8.18339 0.293031 8.05352 0 7.62748Z" fill="white"/>
</svg>
