<svg width="42" height="40" viewBox="0 0 42 40" fill="none" xmlns="http://www.w3.org/2000/svg">
<path d="M17.673 29.695C13.4039 25.1806 9.19034 20.7234 4.97559 16.2649C5.21969 15.9025 5.5462 16.0514 5.8119 16.051C11.8807 16.0411 17.9496 16.0578 24.0183 16.028C24.932 16.0235 25.1904 16.1751 24.8298 17.1316C23.0363 21.8878 21.3032 26.6668 19.4889 31.6008C18.837 30.9162 18.2827 30.3341 17.673 29.695Z" fill="#0568FD"/>
<path d="M26.5317 9.37312C26.5318 6.46739 26.5317 3.67345 26.5323 0.879521C26.5324 0.432852 26.4535 -0.0262385 27.174 0.00116946C31.6293 0.170656 36.0856 0.317496 40.8679 0.483166C36.0421 5.10321 31.4152 9.53277 26.5317 14.208C26.5317 12.4578 26.5317 10.9713 26.5317 9.37312Z" fill="#0568FD"/>
<path d="M18.7115 7.9815C20.9225 5.61887 23.0808 3.31551 25.2263 1.02576C25.5804 1.16045 25.4563 1.42258 25.4567 1.61619C25.4646 5.74484 25.4631 9.87351 25.4627 14.0022C25.4627 14.4766 25.5801 14.9626 24.7867 14.9574C20.6641 14.9304 16.5412 14.9448 12.1318 14.9448C14.4164 12.5282 16.5376 10.2845 18.7115 7.9815Z" fill="#0568FD"/>
<path d="M25.5019 39.7024C24.8968 40.4675 24.582 39.5172 24.0093 39.5052C22.6147 38.4472 20.9169 38.1338 19.5545 37.1563C18.9738 36.7396 18.8044 36.471 19.0688 35.7624C21.1323 30.2331 23.145 24.6849 25.2105 19.0721C25.2799 18.9686 25.3121 18.9356 25.3907 18.954C25.4469 25.3546 25.4563 31.7039 25.4674 38.0532C25.4683 38.5728 25.4809 39.0925 25.5019 39.7024Z" fill="#0568FD"/>
<path d="M4.12665 4.3549C5.97622 3.95865 7.35661 4.40155 8.53701 5.92457C9.96596 7.76827 11.642 9.42371 13.2521 11.1217C13.7073 11.6017 13.6349 11.894 13.2066 12.302C12.4537 13.0193 11.7257 13.7643 11.0142 14.523C10.7065 14.8511 10.3709 14.9587 9.93214 14.9537C8.22262 14.9345 6.51258 14.9323 4.80311 14.9535C4.27519 14.9601 3.98638 14.8727 3.9943 14.2365C4.03498 10.9672 4.03689 7.69743 4.12665 4.3549Z" fill="#0568FD"/>
<path d="M36.3807 6.33351C37.4832 5.20478 38.5729 4.20068 39.5948 3.13179C40.3917 2.29819 40.9955 3.18361 41.8005 3.44577C40.052 4.48507 38.3036 5.52438 36.4758 6.59841C36.3771 6.5655 36.3579 6.49787 36.3807 6.33351Z" fill="#0568FD"/>
<path d="M0 7.62748C0.94748 6.75242 1.83984 5.93581 2.81883 5.03992C3.1176 5.95337 2.94094 6.75144 2.96666 7.53388C2.97003 7.63646 2.9313 7.76083 2.86879 7.84162C2.60434 8.18339 0.293031 8.05352 0 7.62748Z" fill="#0568FD"/>
</svg>
