<svg width="127" height="22" viewBox="0 0 127 22" fill="none" xmlns="http://www.w3.org/2000/svg">
<path d="M9.18947 15.6444C8.54414 15.6444 7.87925 15.5662 7.19481 15.4097C6.52992 15.2533 5.91392 15.0382 5.34681 14.7644C5.52281 15.6053 5.94325 16.2799 6.60814 16.7884C7.29258 17.2968 8.35836 17.5511 9.80547 17.5511C10.1184 17.5511 10.4801 17.5413 10.8908 17.5217C11.3015 17.4826 11.7219 17.4435 12.1521 17.4044C12.5824 17.3653 12.993 17.3164 13.3841 17.2577C13.7752 17.1795 14.1077 17.0915 14.3815 16.9937V20.3084C14.0295 20.4062 13.6384 20.4942 13.2081 20.5724C12.7975 20.6506 12.377 20.7191 11.9468 20.7777C11.5166 20.8364 11.0961 20.8755 10.6855 20.8951C10.2944 20.9342 9.92281 20.9537 9.57081 20.9537C8.26058 20.9537 7.10681 20.7582 6.10947 20.3671C5.13169 19.9759 4.31036 19.4479 3.64547 18.7831C3.00014 18.0986 2.51125 17.3066 2.17881 16.4071C1.86592 15.4879 1.70947 14.5199 1.70947 13.5031C1.70947 12.4471 1.87569 11.4693 2.20814 10.5697C2.54058 9.65061 3.01969 8.84883 3.64547 8.16439C4.29081 7.47994 5.07303 6.94216 5.99214 6.55105C6.93081 6.15994 7.99658 5.96439 9.18947 5.96439C10.089 5.96439 10.9201 6.08172 11.6828 6.31639C12.4455 6.55105 13.1006 6.8835 13.6481 7.31372C14.2153 7.74394 14.6455 8.25239 14.9388 8.83905C15.2517 9.42572 15.4081 10.0808 15.4081 10.8044C15.4081 11.5279 15.2517 12.1928 14.9388 12.7991C14.6455 13.3857 14.225 13.8942 13.6775 14.3244C13.1299 14.7351 12.4748 15.0577 11.7121 15.2924C10.9495 15.5271 10.1086 15.6444 9.18947 15.6444ZM9.21881 12.2417C10.0401 12.2417 10.6855 12.1244 11.1548 11.8897C11.6241 11.6355 11.8588 11.2737 11.8588 10.8044C11.8588 10.3351 11.6241 9.98305 11.1548 9.74839C10.705 9.49416 10.089 9.36705 9.30681 9.36705C8.27036 9.36705 7.44903 9.57239 6.84281 9.98305C6.25614 10.3742 5.82592 10.9022 5.55214 11.5671C6.08014 11.7822 6.66681 11.9484 7.31214 12.0657C7.97703 12.1831 8.61258 12.2417 9.21881 12.2417ZM28.6183 0.244385H32.1383V13.4444C32.1383 14.4808 31.9721 15.4586 31.6396 16.3777C31.3267 17.2773 30.8476 18.0693 30.2023 18.7537C29.5765 19.4186 28.7943 19.9466 27.8556 20.3377C26.9365 20.7288 25.8805 20.9244 24.6876 20.9244C23.4556 20.9244 22.3703 20.7191 21.4316 20.3084C20.493 19.8977 19.701 19.3502 19.0556 18.6657C18.4298 17.9813 17.9605 17.1893 17.6476 16.2897C17.3347 15.3902 17.1783 14.4515 17.1783 13.4737C17.1783 12.4177 17.3543 11.4399 17.7063 10.5404C18.0583 9.62127 18.5472 8.82928 19.1729 8.16439C19.7987 7.47994 20.5516 6.94216 21.4316 6.55105C22.3116 6.15994 23.2698 5.96439 24.3063 5.96439C25.245 5.96439 26.0663 6.13061 26.7703 6.46305C27.4938 6.7955 28.1098 7.24528 28.6183 7.81239V0.244385ZM20.6983 13.4444C20.6983 14.0311 20.7667 14.5786 20.9036 15.0871C21.0601 15.5955 21.2947 16.0453 21.6076 16.4364C21.9401 16.8079 22.3605 17.1013 22.8689 17.3164C23.3774 17.5315 23.9934 17.6391 24.717 17.6391C25.9294 17.6391 26.8778 17.3066 27.5623 16.6417C28.2663 15.9573 28.6183 14.8915 28.6183 13.4444C28.6183 11.9973 28.2663 10.9413 27.5623 10.2764C26.8778 9.59194 25.9294 9.24972 24.717 9.24972C23.9934 9.24972 23.3774 9.35728 22.8689 9.57239C22.3605 9.7875 21.9401 10.0906 21.6076 10.4817C21.2947 10.8533 21.0601 11.2933 20.9036 11.8017C20.7667 12.3102 20.6983 12.8577 20.6983 13.4444ZM42.5981 17.6391C43.8496 17.6391 44.7687 17.2479 45.3554 16.4657C45.9616 15.6835 46.2647 14.6764 46.2647 13.4444V6.11105H49.7847V13.4444C49.7847 14.4808 49.6185 15.4586 49.2861 16.3777C48.9732 17.2773 48.5038 18.0693 47.8781 18.7537C47.2718 19.4186 46.519 19.9466 45.6194 20.3377C44.7394 20.7288 43.7323 20.9244 42.5981 20.9244C41.4638 20.9244 40.4469 20.7288 39.5474 20.3377C38.6674 19.9466 37.9145 19.4186 37.2887 18.7537C36.6825 18.0693 36.2132 17.2773 35.8807 16.3777C35.5678 15.4586 35.4114 14.4808 35.4114 13.4444V6.11105H38.9314V13.4444C38.9314 14.6764 39.2247 15.6835 39.8114 16.4657C40.4176 17.2479 41.3465 17.6391 42.5981 17.6391ZM55.7608 13.4444C55.7608 14.0311 55.8292 14.5786 55.9661 15.0871C56.103 15.5759 56.3377 16.0062 56.6701 16.3777C57.0026 16.7493 57.4328 17.0426 57.9608 17.2577C58.5083 17.4728 59.183 17.5804 59.9848 17.5804C60.7866 17.5804 61.5786 17.5119 62.3608 17.3751C63.1626 17.2186 63.8177 17.0035 64.3261 16.7297V20.3377C63.7003 20.5528 62.9866 20.7093 62.1848 20.8071C61.4026 20.9244 60.6106 20.9831 59.8088 20.9831C58.5963 20.9831 57.5208 20.7875 56.5821 20.3964C55.6435 20.0053 54.8515 19.4773 54.2061 18.8124C53.5608 18.1279 53.0719 17.3262 52.7395 16.4071C52.407 15.4879 52.2408 14.5102 52.2408 13.4737C52.2408 12.4373 52.407 11.4595 52.7395 10.5404C53.0719 9.62127 53.5608 8.82928 54.2061 8.16439C54.8515 7.47994 55.6435 6.94216 56.5821 6.55105C57.5208 6.15994 58.5963 5.96439 59.8088 5.96439C60.6106 5.96439 61.4026 6.02305 62.1848 6.14039C62.9866 6.23816 63.7003 6.39461 64.3261 6.60972V10.2177C63.8177 9.94394 63.1626 9.73861 62.3608 9.60172C61.5786 9.44528 60.7866 9.36705 59.9848 9.36705C59.183 9.36705 58.5083 9.47461 57.9608 9.68972C57.4328 9.90483 57.0026 10.1982 56.6701 10.5697C56.3377 10.9217 56.103 11.3519 55.9661 11.8604C55.8292 12.3493 55.7608 12.8773 55.7608 13.4444ZM66.1053 13.4151C66.1053 12.3982 66.2715 11.4399 66.604 10.5404C66.9364 9.62127 67.4253 8.82928 68.0706 8.16439C68.716 7.47994 69.508 6.94216 70.4466 6.55105C71.3853 6.15994 72.4511 5.96439 73.644 5.96439C74.7586 5.96439 75.7657 6.14039 76.6653 6.49239C77.5649 6.84439 78.3275 7.34305 78.9533 7.98839C79.5986 8.63372 80.0973 9.42572 80.4493 10.3644C80.8209 11.2835 81.0262 12.3102 81.0653 13.4444C81.0849 13.8159 81.0946 14.2755 81.0946 14.8231C81.0946 15.3511 81.124 15.9377 81.1826 16.5831C81.2413 17.2284 81.3489 17.9128 81.5053 18.6364C81.6618 19.3404 81.9062 20.0542 82.2386 20.7777H78.7186C78.3862 20.0542 78.1418 19.3013 77.9853 18.5191C77.4769 19.2622 76.8315 19.8488 76.0493 20.2791C75.2671 20.7093 74.3284 20.9244 73.2333 20.9244C72.1969 20.9244 71.2386 20.7288 70.3586 20.3377C69.4786 19.9466 68.7257 19.4186 68.1 18.7537C67.4742 18.0693 66.9853 17.2773 66.6333 16.3777C66.2813 15.4586 66.1053 14.4711 66.1053 13.4151ZM73.644 9.24972C72.9204 9.24972 72.3044 9.35728 71.796 9.57239C71.2875 9.7875 70.8671 10.0906 70.5346 10.4817C70.2217 10.8533 69.9871 11.2933 69.8306 11.8017C69.6937 12.3102 69.6253 12.8577 69.6253 13.4444C69.6253 14.0311 69.6937 14.5786 69.8306 15.0871C69.9871 15.5955 70.2217 16.0453 70.5346 16.4364C70.8671 16.8079 71.2875 17.1013 71.796 17.3164C72.3044 17.5315 72.9204 17.6391 73.644 17.6391C74.8564 17.6391 75.8049 17.3066 76.4893 16.6417C77.1933 15.9573 77.5453 14.8915 77.5453 13.4444C77.4866 12.1537 77.1542 11.1368 76.548 10.3937C75.9417 9.63105 74.9737 9.24972 73.644 9.24972ZM91.4454 17.6391C91.7387 17.6391 91.9832 17.6293 92.1787 17.6097C92.3743 17.5706 92.5698 17.5315 92.7654 17.4924V20.7777C92.5112 20.8168 92.2961 20.8462 92.1201 20.8657C91.9636 20.9048 91.6996 20.9244 91.3281 20.9244C90.1938 20.9244 89.1769 20.7288 88.2774 20.3377C87.3778 19.9466 86.6054 19.4186 85.9601 18.7537C85.3343 18.0693 84.8454 17.2773 84.4934 16.3777C84.1609 15.4586 83.9947 14.4808 83.9947 13.4444V2.59105H87.5147V6.60972H92.0614V9.89505H87.5147V13.4444C87.5147 14.6764 87.8276 15.6835 88.4534 16.4657C89.0987 17.2479 90.0961 17.6391 91.4454 17.6391ZM101.658 15.6444C101.013 15.6444 100.348 15.5662 99.6636 15.4097C98.9987 15.2533 98.3827 15.0382 97.8156 14.7644C97.9916 15.6053 98.4121 16.2799 99.077 16.7884C99.7614 17.2968 100.827 17.5511 102.274 17.5511C102.587 17.5511 102.949 17.5413 103.36 17.5217C103.77 17.4826 104.191 17.4435 104.621 17.4044C105.051 17.3653 105.462 17.3164 105.853 17.2577C106.244 17.1795 106.577 17.0915 106.85 16.9937V20.3084C106.498 20.4062 106.107 20.4942 105.677 20.5724C105.266 20.6506 104.846 20.7191 104.416 20.7777C103.985 20.8364 103.565 20.8755 103.154 20.8951C102.763 20.9342 102.392 20.9537 102.04 20.9537C100.729 20.9537 99.5756 20.7582 98.5783 20.3671C97.6005 19.9759 96.7792 19.4479 96.1143 18.7831C95.4689 18.0986 94.9801 17.3066 94.6476 16.4071C94.3347 15.4879 94.1783 14.5199 94.1783 13.5031C94.1783 12.4471 94.3445 11.4693 94.6769 10.5697C95.0094 9.65061 95.4885 8.84883 96.1143 8.16439C96.7596 7.47994 97.5418 6.94216 98.4609 6.55105C99.3996 6.15994 100.465 5.96439 101.658 5.96439C102.558 5.96439 103.389 6.08172 104.152 6.31639C104.914 6.55105 105.569 6.8835 106.117 7.31372C106.684 7.74394 107.114 8.25239 107.408 8.83905C107.72 9.42572 107.877 10.0808 107.877 10.8044C107.877 11.5279 107.72 12.1928 107.408 12.7991C107.114 13.3857 106.694 13.8942 106.146 14.3244C105.599 14.7351 104.944 15.0577 104.181 15.2924C103.418 15.5271 102.577 15.6444 101.658 15.6444ZM101.688 12.2417C102.509 12.2417 103.154 12.1244 103.624 11.8897C104.093 11.6355 104.328 11.2737 104.328 10.8044C104.328 10.3351 104.093 9.98305 103.624 9.74839C103.174 9.49416 102.558 9.36705 101.776 9.36705C100.739 9.36705 99.9178 9.57239 99.3116 9.98305C98.725 10.3742 98.2947 10.9022 98.0209 11.5671C98.5489 11.7822 99.1356 11.9484 99.7809 12.0657C100.446 12.1831 101.081 12.2417 101.688 12.2417ZM109.647 13.4151C109.647 12.3982 109.813 11.4399 110.146 10.5404C110.478 9.62127 110.967 8.82928 111.612 8.16439C112.258 7.47994 113.05 6.94216 113.988 6.55105C114.927 6.15994 115.993 5.96439 117.186 5.96439C118.3 5.96439 119.307 6.14039 120.207 6.49239C121.107 6.84439 121.869 7.34305 122.495 7.98839C123.141 8.63372 123.64 9.42572 123.992 10.3644C124.363 11.2835 124.568 12.3102 124.608 13.4444C124.627 13.8159 124.637 14.2755 124.637 14.8231C124.637 15.3511 124.666 15.9377 124.725 16.5831C124.784 17.2284 124.891 17.9128 125.048 18.6364C125.204 19.3404 125.448 20.0542 125.781 20.7777H122.26C121.928 20.0542 121.683 19.3013 121.527 18.5191C121.019 19.2622 120.373 19.8488 119.591 20.2791C118.809 20.7093 117.87 20.9244 116.775 20.9244C115.739 20.9244 114.78 20.7288 113.9 20.3377C113.02 19.9466 112.267 19.4186 111.642 18.7537C111.016 18.0693 110.527 17.2773 110.175 16.3777C109.823 15.4586 109.647 14.4711 109.647 13.4151ZM117.186 9.24972C116.462 9.24972 115.846 9.35728 115.338 9.57239C114.829 9.7875 114.409 10.0906 114.076 10.4817C113.763 10.8533 113.529 11.2933 113.372 11.8017C113.235 12.3102 113.167 12.8577 113.167 13.4444C113.167 14.0311 113.235 14.5786 113.372 15.0871C113.529 15.5955 113.763 16.0453 114.076 16.4364C114.409 16.8079 114.829 17.1013 115.338 17.3164C115.846 17.5315 116.462 17.6391 117.186 17.6391C118.398 17.6391 119.347 17.3066 120.031 16.6417C120.735 15.9573 121.087 14.8915 121.087 13.4444C121.028 12.1537 120.696 11.1368 120.09 10.3937C119.483 9.63105 118.515 9.24972 117.186 9.24972Z" fill="white"/>
</svg>
